:FULLY-SPECIFIED
:FORCE-ALL-JOINTS-BE-3DOF
:DEGREES
374
root 6.17825 16.5447 -15.8172 9.19954 -18.7112 -6.32489
lfemur -42.6185 20.0767 -12.3243
ltibia 54.7328 -0 0
lfoot -6.702 1.66005 -0.105339
ltoes 0 0 0
rfemur -21.7379 -2.32746 30.8713
rtibia 0 0 0
rfoot 0 0 0
rtoes 17.0153 -0 0
lowerback 4.653 2.17964 3.49168
upperback 2.42152 3.02947 0.825324
thorax 0 0 0
lowerneck 0 0 0
upperneck 0 0 0
head 0 0 0
lclavicle 0 0 0
lhumerus -40.3452 -22.7798 94.5091
lradius 55.1094 -0 0
lwrist 17.1654 0 0
lhand -20.1702 2.80401 0.101715
lfingers 0 0 0
lthumb 0 0 0
rclavicle 0 0 0
rhumerus 0 0 0
rradius 0 0 0
rwrist 0 0 0
rhand -13.9422 -20.7328 0.398591
rfingers 0 0 0
rthumb 12.1816 -50.2302 0.393118
375
root 6.13568 16.545 -15.7 9.31315 -19.4449 -6.49268
lfemur -43.8452 20.1 -12.8709
ltibia 53.973 -0 0
lfoot -7.17227 2.06579 -0.0729126
ltoes 0 0 0
rfemur -21.128 -1.69443 31.0426
rtibia 0 0 0
rfoot 0 0 0
rtoes 17.383 -0 0
lowerback 4.76798 2.26895 3.63554
upperback 2.43949 3.15878 0.784351
thorax 0 0 0
lowerneck 0 0 0
upperneck 0 0 0
head 0 0 0
lclavicle 0 0 0
lhumerus -40.1462 -22.7412 94.1057
lradius 55.005 -0 0
lwrist 17.2246 0 0
lhand -20.8565 2.5359 0.0703985
lfingers 0 0 0
lthumb 0 0 0
rclavicle 0 0 0
rhumerus 0 0 0
rradius 0 0 0
rwrist 0 0 0
rhand -12.9995 -19.9741 0.275744
rfingers 0 0 0
rthumb 13.0914 -49.4546 0.271963
376
root 6.09238 16.5449 -15.5802 9.40828 -20.0454 -6.6318
lfemur -44.85 20.1108 -13.3189
ltibia 53.3507 -0 0
lfoot -7.5572 2.39785 -0.0438798
ltoes 0 0 0
rfemur -20.6272 -1.17743 31.1877
rtibia 0 0 0
rfoot 0 0 0
rtoes 17.6842 -0 0
lowerback 4.8623 2.34186 3.75349
upperback 2.45414 3.26467 0.750824
thorax 0 0 0
lowerneck 0 0 0
upperneck 0 0 0
head 0 0 0
lclavicle 0 0 0
lhumerus -39.9835 -22.7085 93.7755
lradius 54.9195 -0 0
lwrist 17.2731 0 0
lhand -21.4184 2.31664 0.0423638
lfingers 0 0 0
lthumb 0 0 0
rclavicle 0 0 0
rhumerus 0 0 0
rradius 0 0 0
rwrist 0 0 0
rhand -12.2287 -19.3544 0.165866
rfingers 0 0 0
rthumb 13.8351 -48.8209 0.163594
377
root 6.04816 16.5445 -15.4573 9.48089 -20.4956 -6.7372
lfemur -45.6037 20.1141 -13.655
ltibia 52.8841 -0 0
lfoot -7.84579 2.64676 -0.0206418
ltoes 0 0 0
rfemur -20.2508 -0.790521 31.2996
rtibia 0 0 0
rfoot 0 0 0
rtoes 17.91 -0 0
lowerback 4.93315 2.39642 3.84204
upperback 2.46509 3.3441 0.725695
thorax 0 0 0
lowerneck 0 0 0
upperneck 0 0 0
head 0 0 0
lclavicle 0 0 0
lhumerus -39.8616 -22.6835 93.528
lradius 54.8554 -0 0
lwrist 17.3094 0 0
lhand -21.8397 2.15238 0.0199275
lfingers 0 0 0
lthumb 0 0 0
rclavicle 0 0 0
rhumerus 0 0 0
rradius 0 0 0
rwrist 0 0 0
rhand -11.6515 -18.8906 0.077996
rfingers 0 0 0
rthumb 14.3922 -48.3466 0.0769286
378
root 6.00284 16.5438 -15.331 9.52707 -20.7784 -6.80388
lfemur -46.0771 20.1141 -13.8661
ltibia 52.5909 -0 0
lfoot -8.02702 2.80306 -0.00540257
ltoes 0 0 0
rfemur -20.0139 -0.547842 31.3711
rtibia 0 0 0
rfoot 0 0 0
rtoes 18.0519 -0 0
lowerback 4.9777 2.43064 3.8977
upperback 2.47195 3.394 0.709915
thorax 0 0 0
lowerneck 0 0 0
upperneck 0 0 0
head 0 0 0
lclavicle 0 0 0
lhumerus -39.7851 -22.6675 93.3726
lradius 54.8151 -0 0
lwrist 17.3323 0 0
lhand -22.1044 2.04927 0.00521544
lfingers 0 0 0
lthumb 0 0 0
rclavicle 0 0 0
rhumerus 0 0 0
rradius 0 0 0
rwrist 0 0 0
rhand -11.2892 -18.5997 0.0204087
rfingers 0 0 0
rthumb 14.7417 -48.0491 0.0201296
379
root 5.95621 16.5429 -15.2007 9.54319 -20.8765 -6.8271
lfemur -46.2414 20.1137 -13.9394
ltibia 52.4892 0 0
lfoot -8.08989 2.85728 0
ltoes 13.3749 0 0
rfemur -19.9317 -0.463717 31.3962
rtibia 39.4485 0 0
rfoot -22.618 0.618733 0
rtoes 18.1011 0 0
lowerback 4.99316 2.4425 3.91702
upperback 2.47433 3.41131 0.704442
thorax -0.0620885 1.72875 -1.63046
lowerneck -7.36796 -0.887037 3.6871
upperneck -0.141185 -1.54524 1.84803
head 1.17445 -0.735625 -0.0933401
lclavicle 7.55382e-15 -4.37326e-15 0
lhumerus -39.7586 -22.6619 93.3187
lradius 54.8011 0 0
lwrist 17.3402 0 0
lhand -22.1962 2.01352 0
lfingers 7.12502 0 0
lthumb 4.21936 31.9515 0
rclavicle 7.55382e-15 -4.37326e-15 0
rhumerus -38.1913 14.2795 -94.0831
rradius 57.9319 0 0
rwrist 10.2654 0 0
rhand -11.1636 -18.4989 0
rfingers 7.12502 0 0
rthumb 14.8629 -47.946 0
380
root 5.90898 16.5417 -15.0659 0 0 0
lfemur 0 0 0
ltibia 52.1131 -0 0
lfoot 0 0 0
ltoes 0 0 0
rfemur 0 0 0
rtibia 40.329 -0 0
rfoot -21.976 0.55543 -0.0123853
rtoes 18.3962 -0 0
lowerback 4.96755 2.49653 3.84354
upperback 2.45072 3.47923 0.655658
thorax 0 0 0
lowerneck -7.33685 -0.839332 3.76283
upperneck -0.039853 -1.49042 1.8511
head 1.20276 -0.705375 -0.103353
lclavicle 0 0 0
lhumerus -39.89 -22.5696 93.3404
lradius 0 0 0
lwrist 17.3769 0 0
lhand -21.9878 2.08433 0.00444679
lfingers 0 0 0
lthumb 4.42049 32.0148 0.00383885
rclavicle 0 0 0
rhumerus -38.3763 14.1964 -94.0571
rradius 57.9861 -0 0
rwrist 0 0 0
rhand 0 0 0
rfingers 0 0 0
rthumb 14.6951 -47.937 -0.00045385
381
root 5.86192 16.5401 -14.9268 0 0 0
lfemur 0 0 0
ltibia 51.6289 -0 0
lfoot 0 0 0
ltoes 0 0 0
rfemur 0 0 0
rtibia 41.4624 -0 0
rfoot -21.1495 0.473739 -0.0272839
rtoes 18.7761 -0 0
lowerback 4.93449 2.56604 3.74891
upperback 2.42024 3.56665 0.592809
thorax 0 0 0
lowerneck -7.29671 -0.77798 3.86036
upperneck 0.0905982 -1.41985 1.8552
head 1.23921 -0.666425 -0.116221
lclavicle 0 0 0
lhumerus -40.0589 -22.4508 93.3679
lradius 0 0 0
lwrist 17.4242 0 0
lhand -21.7195 2.17551 0.00979216
lfingers 0 0 0
lthumb 4.67943 32.0964 0.0084534
rclavicle 0 0 0
rhumerus -38.6144 14.0895 -94.0233
rradius 58.0558 -0 0
rwrist 0 0 0
rhand 0 0 0
rfingers 0 0 0
rthumb 14.4792 -47.9255 -0.00099939
